HIERARCHY
ROOT Pelvis
{
	OFFSET 0.000000 0.000000 0.000000
	CHANNELS 6 Xposition Yposition Zposition Zrotation Yrotation Xrotation 
	JOINT Left_hip
	{
		OFFSET 0.069463 -0.088608 -0.009542
		CHANNELS 3 Zrotation Yrotation Xrotation
		JOINT Left_knee
		{
			OFFSET 0.030639 -0.359740 -0.005288
			CHANNELS 3 Zrotation Yrotation Xrotation
			JOINT Left_ankle
			{
				OFFSET -0.011068 -0.376034 -0.042462
				CHANNELS 3 Zrotation Yrotation Xrotation
				JOINT Left_foot
				{
					OFFSET 0.023192 -0.053321 0.111332
					CHANNELS 3 Zrotation Yrotation Xrotation
					End Site
					{
						OFFSET 0.000000 0.000000 0.000000
					}
				}
			}
		}
	}
	JOINT Right_hip
	{
		OFFSET -0.067438 -0.088025 -0.006263
		CHANNELS 3 Zrotation Yrotation Xrotation
		JOINT Right_knee
		{
			OFFSET -0.035962 -0.366229 -0.008063
			CHANNELS 3 Zrotation Yrotation Xrotation
			JOINT Right_ankle
			{
				OFFSET 0.013608 -0.375719 -0.040481
				CHANNELS 3 Zrotation Yrotation Xrotation
				JOINT Right_foot
				{
					OFFSET -0.021034 -0.045527 0.114617
					CHANNELS 3 Zrotation Yrotation Xrotation
					End Site
					{
						OFFSET 0.000000 0.000000 0.000000
					}
				}
			}
		}
	}
	JOINT Spine1
	{
		OFFSET -0.002610 0.101823 -0.019986
		CHANNELS 3 Zrotation Yrotation Xrotation
		JOINT Spine2
		{
			OFFSET 0.004114 0.128714 -0.000938
			CHANNELS 3 Zrotation Yrotation Xrotation
			JOINT Spine3
			{
				OFFSET 0.002191 0.048470 0.027684
				CHANNELS 3 Zrotation Yrotation Xrotation
				JOINT Neck
				{
					OFFSET -0.002856 0.198873 -0.044022
					CHANNELS 3 Zrotation Yrotation Xrotation
					JOINT Head
					{
						OFFSET 0.002981 0.062960 0.049860
						CHANNELS 3 Zrotation Yrotation Xrotation
						End Site
						{
							OFFSET 0.000000 0.000000 0.000000
						}
					}
				}
				JOINT Left_collar
				{
					OFFSET 0.073708 0.112550 -0.033440
					CHANNELS 3 Zrotation Yrotation Xrotation
					JOINT Left_shoulder
					{
						OFFSET 0.083291 0.030786 -0.008013
						CHANNELS 3 Zrotation Yrotation Xrotation
						JOINT Left_elbow
						{
							OFFSET 0.245601 -0.011792 -0.027873
							CHANNELS 3 Zrotation Yrotation Xrotation
							JOINT Left_wrist
							{
								OFFSET 0.232258 0.008622 -0.000487
								CHANNELS 3 Zrotation Yrotation Xrotation
								JOINT Left_palm
								{
									OFFSET 0.077300 -0.009457 -0.012851
									CHANNELS 3 Zrotation Yrotation Xrotation
									End Site
									{
										OFFSET 0.000000 0.000000 0.000000
									}
								}
							}
						}
					}
				}
				JOINT Right_collar
				{
					OFFSET -0.075339 0.110574 -0.037874
					CHANNELS 3 Zrotation Yrotation Xrotation
					JOINT Right_shoulder
					{
						OFFSET -0.086522 0.031207 -0.009986
						CHANNELS 3 Zrotation Yrotation Xrotation
						JOINT Right_elbow
						{
							OFFSET -0.237313 -0.011478 -0.019859
							CHANNELS 3 Zrotation Yrotation Xrotation
							JOINT Right_wrist
							{
								OFFSET -0.237599 0.007976 -0.003742
								CHANNELS 3 Zrotation Yrotation Xrotation
								JOINT Right_palm
								{
									OFFSET -0.076920 -0.006943 -0.009920
									CHANNELS 3 Zrotation Yrotation Xrotation
									End Site
									{
										OFFSET 0.000000 0.000000 0.000000
									}
								}
							}
						}
					}
				}
			}
		}
	}
}
MOTION
Frames: 6
Frame Time: 0.100000
0.000000 0.000000 0.000000 175.414069 32.661464 -26.326055 4.120162 5.228250 18.024119 1.352135 -9.807364 -2.089888 3.829479 6.290661 -3.637227 -8.717517 9.330513 -3.019745 -3.039151 -6.101324 21.480287 -1.254828 0.027002 -3.912979 -6.468597 -8.353603 -6.689666 12.490259 -3.329852 9.701189 0.372992 0.761040 5.270328 0.008158 -3.991324 7.087082 -0.531169 -3.206239 -0.914676 -0.484221 -11.228868 13.019185 -2.411162 -11.381864 4.782877 -31.737032 1.945241 6.678444 -50.663247 -8.036018 6.277106 3.124874 -17.312168 11.905207 -13.712949 3.895284 -4.010395 -7.346362 -3.309958 -8.034300 32.512104 3.104735 4.297617 53.079747 3.057784 10.436263 -6.950658 11.672388 -3.709981 8.873743 -4.386408 -2.395071 10.680574 8.312672 -3.202982 
0.001724 0.000472 -0.001199 175.456302 32.794961 -26.386420 4.017626 5.207546 17.735972 1.377078 -9.789997 -1.732256 4.010909 6.278567 -3.626964 -8.997502 9.363963 -2.967948 -3.012131 -6.087759 21.179942 -1.282262 -0.019603 -3.463168 -6.777219 -8.354971 -6.840669 12.908593 -3.507610 9.817130 0.493238 0.846649 5.637942 -0.002544 -3.923969 7.130403 -0.499448 -3.083635 -0.998037 -0.490089 -11.143531 12.451373 -2.346096 -11.376738 4.311398 -31.663111 1.263256 6.623438 -50.311923 -8.192718 6.613809 2.666005 -17.787828 12.997313 -13.671231 3.910895 -3.227136 -7.424167 -3.304477 -8.153912 32.429961 3.773912 4.456642 52.774367 3.268758 10.543244 -6.658161 11.660519 -3.002165 8.861246 -4.375352 -1.757497 10.670390 8.348507 -3.342744 
0.003622 0.000864 -0.003222 175.408370 33.351268 -26.373397 3.807018 5.006185 17.189118 1.412203 -9.810477 -1.229148 3.818427 6.205335 -3.538974 -8.694589 9.242833 -3.231166 -3.056199 -6.262431 20.973370 -1.269106 -0.384438 -3.260110 -6.663976 -8.517119 -6.812788 12.590385 -3.491180 9.632173 0.628292 0.809166 5.750992 0.014327 -3.958923 7.059734 -0.370253 -3.107187 -0.886646 -0.812781 -10.591799 12.075739 -2.541002 -10.745815 4.096409 -31.231879 1.140400 6.632225 -50.853810 -8.101183 6.995081 2.662033 -19.019945 13.963385 -13.357118 3.616906 -3.190249 -7.325676 -3.241380 -8.064820 31.965193 3.896345 4.523798 52.778399 3.270166 10.761717 -6.615765 12.488707 -2.250568 8.655881 -4.149335 -1.576637 10.543071 8.275710 -3.344506 
0.002289 0.001769 -0.009299 175.248887 36.080199 -26.458594 3.428156 5.068210 15.868007 0.831265 -10.578351 0.126441 3.969769 5.206543 -4.260722 -9.085536 9.257163 -3.764563 -4.007865 -7.535720 20.442467 -1.174122 -1.971698 -2.025811 -6.337855 -8.686690 -7.152850 12.301615 -3.422326 9.131547 0.879062 0.952172 6.330596 -0.344017 -3.856188 6.477722 -0.533210 -3.034362 -0.780601 -2.158085 -8.974488 13.045899 -3.496161 -9.124717 4.557845 -30.649871 1.179696 6.369450 -50.904986 -8.177689 6.974310 2.175527 -19.942877 15.488756 -12.996550 3.628629 -2.579458 -7.467493 -3.242288 -7.977951 31.452662 3.037619 4.747004 53.322358 2.295251 10.634675 -6.603093 14.294827 -1.540536 8.459643 -3.699793 -1.659481 10.703986 8.429963 -3.204019 
-0.010195 0.003221 -0.013384 173.934102 44.045039 -29.028045 2.739953 5.340737 16.547962 0.471825 -10.172007 1.449223 6.810283 5.386345 -7.165951 -11.986237 10.116273 -2.940695 -5.935483 -9.299739 23.957246 -1.428670 -4.706505 -2.116833 -7.426579 -10.816203 -7.082023 14.109848 -3.214240 9.838780 0.866981 1.741410 6.004822 -0.623526 -3.762363 7.310765 -0.914257 -2.933737 -0.357805 -4.671956 -7.300193 18.757709 -6.169076 -6.913507 7.479210 -30.715619 -0.021632 7.167503 -49.455336 -9.733733 6.636425 0.915743 -19.842045 17.676468 -15.080689 4.779439 -2.849935 -7.167000 -3.308906 -7.406013 32.286148 2.799234 6.065862 51.955826 2.089413 9.261772 -5.441888 10.885182 -3.472075 10.053207 -4.703432 -2.255459 10.947231 8.788922 -3.115184 
-0.019744 0.006302 -0.028269 170.845531 52.299747 -29.931687 1.486754 4.488974 12.303328 -0.019787 -9.102791 3.753423 7.413392 4.491775 -6.988482 -13.002253 10.364325 -2.473508 -6.569375 -10.781801 23.369637 -1.559827 -8.621636 -1.842894 -8.572188 -12.568445 -6.225243 15.478336 -4.167877 10.157866 1.267918 2.650582 8.197639 -0.776914 -3.106451 6.002691 -0.561872 -2.135401 -0.846823 -4.218905 -7.509281 17.057818 -5.697181 -6.316651 6.179007 -30.261875 -0.282328 6.715395 -49.269473 -9.494342 7.132687 0.061083 -22.499912 20.037236 -15.708732 4.141448 -2.776929 -6.202992 -3.164970 -7.068183 31.511498 4.823815 5.970052 50.210437 4.806581 8.079973 -5.803164 8.235400 -5.140715 9.714494 -4.924653 -1.340477 9.849438 8.522910 -2.731926 
